<svg id="Vrstva_1" data-name="Vrstva 1" xmlns="http://www.w3.org/2000/svg" viewBox="0 0 329 74"><defs><style>.cls-1{fill:#274249;}.cls-2{fill:#f9a03b;fill-rule:evenodd;}.cls-3{fill:none;}</style></defs><g id="Logo-Alt"><g id="Group"><path id="upgates" class="cls-1" d="M134.35,84.61c3.09,0,6.6-1.11,8.2-3.76a24.59,24.59,0,0,0,.25,3.09h9a46.24,46.24,0,0,1-.3-5.26V53.29h-9.38V70.74A4.88,4.88,0,0,1,137.64,76a4.56,4.56,0,0,1-.64,0c-3.33,0-4.94-2.34-4.94-5.3V53.29H122.7V72.65C122.7,79.19,126.89,84.61,134.35,84.61Zm31.7,11V81.53c1.41,1.73,4.37,3.08,8.32,3.08,8.57,0,14.61-6.72,14.61-16.09,0-9.18-5.36-16-14.24-16-4.38,0-7.71,1.91-9,3.89V53.29h-9.07V95.65Zm6.78-19.42c-3.64,0-6.91-2.59-6.91-7.65S169.19,61,172.83,61s7,2.47,7,7.58-3.27,7.65-7,7.65Zm33.48,20.35c11.47,0,16.4-7.65,16.4-16.47V53.29h-8.94v3.27c-.86-1.6-3.52-3.82-8.51-3.82-8.38,0-14.24,6.9-14.24,15,0,8.51,6.1,14.92,14.24,14.92,4.44,0,7.09-1.79,8.2-3.45v1.42c0,5.55-2.9,7.83-7.58,7.83a6.41,6.41,0,0,1-6.6-5.12L191,85.66c.86,5.49,6.47,10.92,15.29,10.92Zm.69-22a6.36,6.36,0,0,1-6.61-6.1,5.15,5.15,0,0,1,0-.68,6.5,6.5,0,0,1,6.21-6.78H207a6.45,6.45,0,0,1,6.54,6.36c0,.14,0,.28,0,.42C213.52,71.91,210.81,74.5,207,74.5Zm30.2,10.3c4.07,0,7-1.73,8.63-4.32a14.91,14.91,0,0,0,.31,3.46h8.45a29.06,29.06,0,0,1-.37-4.75v-15c0-6.29-3.64-11.84-13.57-11.84-9,0-13.07,5.79-13.44,10.17l8.14,1.67a4.92,4.92,0,0,1,5.24-4.5c3,0,4.5,1.54,4.5,3.32,0,1-.55,1.85-2.22,2.1l-7.21,1.11c-5.06.74-9.07,3.82-9.07,9.25C226.59,80.36,230.48,84.8,237.2,84.8Zm2.28-6.8c-2.59,0-3.64-1.54-3.64-3.15,0-2.16,1.48-3.08,3.46-3.39l5.79-.92v1.35C245.09,76.66,242.25,78,239.48,78Zm32.68,6.47a11.28,11.28,0,0,0,4.87-.86V75.86a12.1,12.1,0,0,1-2.47.31c-2,0-3.39-.68-3.39-3.21V61.49h6v-8.2h-6V44.35h-8.38V48.3c0,2.83-1.54,5-4.75,5H256.5v8.2h5.42V74.63c0,6.1,3.89,9.86,10.24,9.86Zm23.18.37c7.77,0,12.64-4.44,14.12-9.74l-7.83-2.22c-.86,2.4-2.77,4-6.17,4-3.63,0-6.78-2.47-7-5.92h21.33a20.09,20.09,0,0,0,.19-2.9c0-9.86-5.86-15.72-15.36-15.72-8,0-15.29,6.29-15.29,16.15,0,10.33,7.56,16.37,16,16.37ZM301,65H288.68a5.84,5.84,0,0,1,6.11-5.18c4.44,0,6,2.83,6.16,5.18Zm23.68,19.91c8.2,0,12.21-5.12,12.21-10.36,0-4.5-3.09-8.32-9.44-9.62l-4.07-.8c-1.35-.24-2.4-1-2.4-2.28,0-1.6,1.54-2.65,3.33-2.65a4,4,0,0,1,4.37,3.6c0,.05,0,.1,0,.16l7.77-1.42c-.31-3.57-3.4-9.12-12.27-9.12-6.85,0-11.78,4.56-11.78,10.17,0,4.32,2.59,8,9.12,9.44l3.52.8c2.28.49,3,1.41,3,2.52,0,1.36-1.17,2.66-3.58,2.66-3.2,0-4.68-2-4.81-4.14l-8,1.42c.22,3.34,3.29,9.57,12.92,9.57Z" transform="translate(-23 -24)"/><path id="TM" class="cls-1" d="M343.43,58V54.15h1.51v-1h-4.1v1h1.5V58Zm3,0V54.8l1.28,3.2h.88l1.28-3.24V58H351V53.11h-1.5l-1.28,3.3-1.34-3.3H345.4V58Z" transform="translate(-23 -24)"/></g><g id="Symbol"><path id="Path" class="cls-2" d="M54.88,67.17H67.21v9.24a21.58,21.58,0,0,1-43.16,0V36.34H36.38V76.41a9.25,9.25,0,0,0,18.5,0h0Z" transform="translate(-23 -24)"/><path id="Path-2" class="cls-2" d="M67.21,67.17V54.83h9.25a9.25,9.25,0,1,0,.77-18.48H36.38V24H76.82a21.58,21.58,0,1,1,0,43.16Z" transform="translate(-23 -24)"/></g></g><rect id="_Řez_" data-name=" Řez " class="cls-3" x="0.8" y="0.01" width="327.4" height="73.99"/><rect id="_Řez_2" data-name="&lt;Řez&gt;" class="cls-3" width="329" height="74"/></svg>